# xmcd
#
# Track frame offsets:
#	150
#	13718
#	26830
#	37701
#	53045
#	73142
#	86518
#	107065
#	121450
#
# Disc length: 1899 seconds
# Revision: 0
# Processed by: cddbd v1.5.2PL0 Copyright (c) Steve Scherf et al.
# Submitted via: dBpowerAMP V12.0
#
DISCID=6f076909
DTITLE=Various Artist - Cloud 9: The EP
DYEAR=2008
DGENRE=Grime
TTITLE0=Tinchy Stryder (By Maniac) - Full Effect
TTITLE1=Tinchy Stryder (Feat. Chipmunk)(By Maniac) - Sorry U Are?
TTITLE2=Tinchy Stryder (By Maniac) - Six 4 Fire
TTITLE3=Tinchy Stryder (By Scholar) - Line Em Up
TTITLE4=Tinchy Stryder (Feat. Nav)(By Rami Afuni) - Thump
TTITLE5=Tinchy Stryder (By Skepta) - Sick In The Head
TTITLE6=Tinchy Stryder (Feat. Fuda Guy)(By Roullete) - 16 Writers
TTITLE7=Tinchy Stryder (By Dirty Danger) - Watch Ur Back
TTITLE8=Tinchy Stryder (By Rapid) - My 95's
EXTD=
EXTT0=
EXTT1=
EXTT2=
EXTT3=
EXTT4=
EXTT5=
EXTT6=
EXTT7=
EXTT8=
PLAYORDER=
